<svg xmlns="http://www.w3.org/2000/svg" xmlns:xlink="http://www.w3.org/1999/xlink" viewBox="0 0 512 512" width="512" height="512" style="width: 100%; height: 100%; transform: translate3d(0,0,0); content-visibility: visible;" preserveAspectRatio="xMidYMid meet"><defs><clipPath id="__lottie_element_2"><rect width="512" height="512" x="0" y="0"></rect></clipPath><linearGradient id="__lottie_element_9" spreadMethod="pad" gradientUnits="userSpaceOnUse" x1="0.7120000123977661" y1="-52.821998596191406" x2="0.7120000123977661" y2="111.74500274658203"><stop offset="0%" stop-color="rgb(138,159,255)"></stop><stop offset="50%" stop-color="rgb(104,131,255)"></stop><stop offset="100%" stop-color="rgb(69,102,255)"></stop></linearGradient><linearGradient id="__lottie_element_12" spreadMethod="pad" gradientUnits="userSpaceOnUse" x1="0.7120000123977661" y1="-38.262001037597656" x2="0.7120000123977661" y2="41.78799819946289"><stop offset="0%" stop-color="rgb(138,159,255)"></stop><stop offset="50%" stop-color="rgb(104,131,255)"></stop><stop offset="100%" stop-color="rgb(69,102,255)"></stop></linearGradient><radialGradient id="__lottie_element_15" spreadMethod="pad" gradientUnits="userSpaceOnUse" cx="0.8420000076293945" cy="-0.8330000042915344" r="27.98799991607666" fx="0.8420000076293945" fy="-0.8330000042915344"><stop offset="0%" stop-color="rgb(255,225,235)"></stop><stop offset="50%" stop-color="rgb(255,146,200)"></stop><stop offset="100%" stop-color="rgb(255,67,166)"></stop></radialGradient><radialGradient id="__lottie_element_19" spreadMethod="pad" gradientUnits="userSpaceOnUse" cx="0.4860000014305115" cy="-0.027000000700354576" r="57.98500066995621" fx="0.4860000014305115" fy="-0.027000000700354576"><stop offset="0%" stop-color="rgb(255,225,235)"></stop><stop offset="50%" stop-color="rgb(255,146,200)"></stop><stop offset="100%" stop-color="rgb(255,67,166)"></stop></radialGradient><radialGradient id="__lottie_element_23" spreadMethod="pad" gradientUnits="userSpaceOnUse" cx="0.48899999260902405" cy="-0.027000000700354576" r="57.98599848151207" fx="0.48899999260902405" fy="-0.027000000700354576"><stop offset="0%" stop-color="rgb(255,225,235)"></stop><stop offset="50%" stop-color="rgb(255,146,200)"></stop><stop offset="100%" stop-color="rgb(255,67,166)"></stop></radialGradient><linearGradient id="__lottie_element_27" spreadMethod="pad" gradientUnits="userSpaceOnUse" x1="0.7120000123977661" y1="-124.47799682617188" x2="0.7120000123977661" y2="127.68699645996094"><stop offset="0%" stop-color="rgb(255,179,224)"></stop><stop offset="17%" stop-color="rgb(255,123,195)"></stop><stop offset="34%" stop-color="rgb(255,67,166)"></stop><stop offset="37%" stop-color="rgb(255,118,191)"></stop><stop offset="39%" stop-color="rgb(255,169,216)"></stop><stop offset="70%" stop-color="rgb(255,120,191)"></stop><stop offset="100%" stop-color="rgb(255,70,166)"></stop></linearGradient></defs><g clip-path="url(#__lottie_element_2)"><g style="display: block;" transform="matrix(1,0,0,1,0,-20)" opacity="1"><g opacity="1" transform="matrix(1,0,0,1,255.63999938964844,337.6789855957031)"><path fill="url(#__lottie_element_9)" fill-opacity="1" d=" M90.31099700927734,-111.73699951171875 C90.31099700927734,-111.73699951171875 -90.31099700927734,-111.73699951171875 -90.31099700927734,-111.73699951171875 C-124.00700378417969,-111.73699951171875 -151.322998046875,-91.58999633789062 -151.322998046875,-66.73799896240234 C-151.322998046875,-66.73799896240234 -141.88800048828125,51.321998596191406 -141.88800048828125,51.321998596191406 C-141.88800048828125,75.77200317382812 -118.78399658203125,124.05599975585938 -42.45500183105469,107.56300354003906 C-42.45500183105469,107.56300354003906 42.45500183105469,107.56300354003906 42.45500183105469,107.56300354003906 C119.10099792480469,126.59400177001953 141.88800048828125,75.77200317382812 141.88800048828125,51.321998596191406 C141.88800048828125,51.321998596191406 151.322998046875,-66.73799896240234 151.322998046875,-66.73799896240234 C151.322998046875,-91.58999633789062 124.00700378417969,-111.73699951171875 90.31099700927734,-111.73699951171875z"></path></g><g opacity="0.3" transform="matrix(1,0,0,1,255.34800720214844,378.1839904785156)"><path fill="rgb(8,53,181)" fill-opacity="1" d=" M-141.5970001220703,10.817000389099121 C-141.5970001220703,35.266998291015625 -118.49299621582031,83.5510025024414 -42.16400146484375,67.05799865722656 C-42.16400146484375,67.05799865722656 42.74599838256836,67.05799865722656 42.74599838256836,67.05799865722656 C119.39199829101562,86.08899688720703 142.17999267578125,35.266998291015625 142.17999267578125,10.817000389099121 C142.17999267578125,10.817000389099121 148.78399658203125,-49.665000915527344 146.2469940185547,-66.15799713134766 C137.36599731445312,22.652000427246094 78.0530014038086,72.44999694824219 -2.828000068664551,14.406000137329102 C-70.38700103759766,66.74099731445312 -140.48300170898438,37.87799835205078 -146.82699584960938,-71.23200225830078 C-146.82699584960938,-43.31999969482422 -141.5970001220703,10.817000389099121 -141.5970001220703,10.817000389099121z"></path></g><g opacity="1" transform="matrix(1,0,0,1,255.63999938964844,337.6789855957031)"><path stroke-linecap="butt" stroke-linejoin="miter" fill-opacity="0" stroke-miterlimit="10" stroke="rgb(30,73,193)" stroke-opacity="1" stroke-width="13" d=" M90.31099700927734,-111.73699951171875 C90.31099700927734,-111.73699951171875 -90.31099700927734,-111.73699951171875 -90.31099700927734,-111.73699951171875 C-124.00700378417969,-111.73699951171875 -151.322998046875,-91.58999633789062 -151.322998046875,-66.73799896240234 C-151.322998046875,-66.73799896240234 -141.88800048828125,51.321998596191406 -141.88800048828125,51.321998596191406 C-141.88800048828125,75.77200317382812 -118.78399658203125,124.05599975585938 -42.45500183105469,107.56300354003906 C-42.45500183105469,107.56300354003906 42.45500183105469,107.56300354003906 42.45500183105469,107.56300354003906 C119.10099792480469,126.59400177001953 141.88800048828125,75.77200317382812 141.88800048828125,51.321998596191406 C141.88800048828125,51.321998596191406 151.322998046875,-66.73799896240234 151.322998046875,-66.73799896240234 C151.322998046875,-91.58999633789062 124.00700378417969,-111.73699951171875 90.31099700927734,-111.73699951171875z"></path></g></g><g style="display: block;" transform="matrix(1,0,0,1,0,-20)" opacity="1"><g opacity="1" transform="matrix(1,0,0,1,255.63999938964844,225.11900329589844)"><path fill="url(#__lottie_element_12)" fill-opacity="1" d=" M133.17599487304688,52.334999084472656 C133.17599487304688,52.334999084472656 -133.17599487304688,52.334999084472656 -133.17599487304688,52.334999084472656 C-155.7949981689453,52.334999084472656 -174.1320037841797,35.505001068115234 -174.1320037841797,14.744000434875488 C-174.1320037841797,14.744000434875488 -174.1320037841797,-6.179999828338623 -174.1320037841797,-6.179999828338623 C-174.1320037841797,-26.94099998474121 -155.85299682617188,-39.96500015258789 -133.17599487304688,-43.770999908447266 C-100.5989990234375,-49.23899841308594 -69.45999908447266,-52.334999084472656 -1.0369999408721924,-52.334999084472656 C63.2400016784668,-52.334999084472656 100.28199768066406,-50.21200180053711 133.17599487304688,-43.770999908447266 C155.85299682617188,-39.33000183105469 174.1320037841797,-26.94099998474121 174.1320037841797,-6.179999828338623 C174.1320037841797,-6.179999828338623 174.1320037841797,14.744000434875488 174.1320037841797,14.744000434875488 C174.1320037841797,35.505001068115234 155.7949981689453,52.334999084472656 133.17599487304688,52.334999084472656z"></path></g><g opacity="1" transform="matrix(1,0,0,1,256,207.3040008544922)"><path fill="rgb(138,159,255)" fill-opacity="1" d=" M-174.49200439453125,28.599000930786133 C-174.49200439453125,-10.730999946594238 -156.21299743652344,-20.670000076293945 -133.53599548339844,-24.47599983215332 C-100.95899963378906,-29.944000244140625 -69.81999969482422,-33.040000915527344 -1.3969999551773071,-33.040000915527344 C62.880001068115234,-33.040000915527344 99.9219970703125,-30.91699981689453 132.8159942626953,-24.47599983215332 C155.4929962158203,-20.03499984741211 173.77200317382812,-14.220000267028809 173.77200317382812,33.040000915527344 C173.77200317382812,33.040000915527344 196.343994140625,-8.82800006866455 6.035999774932861,-8.82800006866455 C-185.2239990234375,-8.82800006866455 -174.49200439453125,28.599000930786133 -174.49200439453125,28.599000930786133z"></path></g><g opacity="1" transform="matrix(1,0,0,1,255.63999938964844,225.11900329589844)"><path stroke-linecap="butt" stroke-linejoin="miter" fill-opacity="0" stroke-miterlimit="10" stroke="rgb(30,73,193)" stroke-opacity="1" stroke-width="13" d=" M133.17599487304688,52.334999084472656 C133.17599487304688,52.334999084472656 -133.17599487304688,52.334999084472656 -133.17599487304688,52.334999084472656 C-155.7949981689453,52.334999084472656 -174.1320037841797,35.505001068115234 -174.1320037841797,14.744000434875488 C-174.1320037841797,14.744000434875488 -174.1320037841797,-6.179999828338623 -174.1320037841797,-6.179999828338623 C-174.1320037841797,-26.94099998474121 -155.85299682617188,-39.96500015258789 -133.17599487304688,-43.770999908447266 C-100.5989990234375,-49.23899841308594 -69.45999908447266,-52.334999084472656 -1.0369999408721924,-52.334999084472656 C63.2400016784668,-52.334999084472656 100.28199768066406,-50.21200180053711 133.17599487304688,-43.770999908447266 C155.85299682617188,-39.33000183105469 174.1320037841797,-26.94099998474121 174.1320037841797,-6.179999828338623 C174.1320037841797,-6.179999828338623 174.1320037841797,14.744000434875488 174.1320037841797,14.744000434875488 C174.1320037841797,35.505001068115234 155.7949981689453,52.334999084472656 133.17599487304688,52.334999084472656z"></path></g></g><g style="display: block;" transform="matrix(1,0,0,1,255.63999938964844,288.3349914550781)" opacity="1"><g opacity="1" transform="matrix(1,0,0,1,0,0)"><path fill="url(#__lottie_element_27)" fill-opacity="1" d=" M22.448999404907227,143.47999572753906 C22.448999404907227,143.47999572753906 -22.641000747680664,143.47999572753906 -22.641000747680664,143.47999572753906 C-30.243000030517578,143.47999572753906 -36.88399887084961,138.18699645996094 -38.832000732421875,130.5800018310547 C-44.25699996948242,109.3949966430664 -53.7130012512207,62.599998474121094 -53.7130012512207,-6.195000171661377 C-53.7130012512207,-67.36199951171875 -44.39500045776367,-110.72699737548828 -38.95199966430664,-130.84100341796875 C-36.928001403808594,-138.3209991455078 -30.33300018310547,-143.47999572753906 -22.82900047302246,-143.47999572753906 C-22.82900047302246,-143.47999572753906 23.05900001525879,-143.47999572753906 23.05900001525879,-143.47999572753906 C30.49799919128418,-143.47999572753906 37.03099822998047,-138.40199279785156 39.132999420166016,-131.01600646972656 C44.5989990234375,-111.80599975585938 53.7130012512207,-70.83899688720703 53.7130012512207,-11.227999687194824 C53.7130012512207,59.13399887084961 44.07400131225586,108.375 38.676998138427734,130.4340057373047 C36.79800033569336,138.11500549316406 30.10300064086914,143.47999572753906 22.448999404907227,143.47999572753906z"></path><path stroke-linecap="butt" stroke-linejoin="miter" fill-opacity="0" stroke-miterlimit="10" stroke="rgb(186,25,175)" stroke-opacity="1" stroke-width="13" d=" M22.448999404907227,143.47999572753906 C22.448999404907227,143.47999572753906 -22.641000747680664,143.47999572753906 -22.641000747680664,143.47999572753906 C-30.243000030517578,143.47999572753906 -36.88399887084961,138.18699645996094 -38.832000732421875,130.5800018310547 C-44.25699996948242,109.3949966430664 -53.7130012512207,62.599998474121094 -53.7130012512207,-6.195000171661377 C-53.7130012512207,-67.36199951171875 -44.39500045776367,-110.72699737548828 -38.95199966430664,-130.84100341796875 C-36.928001403808594,-138.3209991455078 -30.33300018310547,-143.47999572753906 -22.82900047302246,-143.47999572753906 C-22.82900047302246,-143.47999572753906 23.05900001525879,-143.47999572753906 23.05900001525879,-143.47999572753906 C30.49799919128418,-143.47999572753906 37.03099822998047,-138.40199279785156 39.132999420166016,-131.01600646972656 C44.5989990234375,-111.80599975585938 53.7130012512207,-70.83899688720703 53.7130012512207,-11.227999687194824 C53.7130012512207,59.13399887084961 44.07400131225586,108.375 38.676998138427734,130.4340057373047 C36.79800033569336,138.11500549316406 30.10300064086914,143.47999572753906 22.448999404907227,143.47999572753906z"></path></g></g><g style="display: block;" transform="matrix(1,0,0,1,0,-20)" opacity="1"><g opacity="1" transform="matrix(1,0,0,1,184.86300659179688,111.88400268554688)"><path fill="url(#__lottie_element_23)" fill-opacity="1" d=" M61.604000091552734,20.61400032043457 C50.79100036621094,-4.968999862670898 23.082000732421875,-54.82400131225586 -17.465999603271484,-51.54399871826172 C-58.013999938964844,-48.263999938964844 -72.88200378417969,10.116999626159668 -58.013999938964844,29.797000885009766 C-43.145999908447266,49.47700119018555 -11.383000373840332,52.75699996948242 6.188000202178955,51.44499969482422 C23.759000778198242,50.132999420166016 50.1150016784668,49.47700119018555 58.900001525878906,49.47700119018555 C67.68499755859375,49.47700119018555 61.604000091552734,20.61400032043457 61.604000091552734,20.61400032043457z"></path><path stroke-linecap="butt" stroke-linejoin="miter" fill-opacity="0" stroke-miterlimit="10" stroke="rgb(186,25,175)" stroke-opacity="1" stroke-width="13" d=" M61.604000091552734,20.61400032043457 C50.79100036621094,-4.968999862670898 23.082000732421875,-54.82400131225586 -17.465999603271484,-51.54399871826172 C-58.013999938964844,-48.263999938964844 -72.88200378417969,10.116999626159668 -58.013999938964844,29.797000885009766 C-43.145999908447266,49.47700119018555 -11.383000373840332,52.75699996948242 6.188000202178955,51.44499969482422 C23.759000778198242,50.132999420166016 50.1150016784668,49.47700119018555 58.900001525878906,49.47700119018555 C67.68499755859375,49.47700119018555 61.604000091552734,20.61400032043457 61.604000091552734,20.61400032043457z"></path></g><g opacity="1" transform="matrix(1,0,0,1,203.2030029296875,96.34200286865234)"><path fill="rgb(229,46,146)" fill-opacity="1" d=" M44.53200149536133,36.15599822998047 C33.71900177001953,10.572999954223633 6.010000228881836,-39.28200149536133 -34.53799819946289,-36.00199890136719 C-54.58700180053711,-34.380001068115234 -42.15700149536133,-3.059999942779541 -17.71299934387207,14.380999565124512 C7.281000137329102,32.2140007019043 44.53200149536133,36.15599822998047 44.53200149536133,36.15599822998047z"></path><path stroke-linecap="butt" stroke-linejoin="miter" fill-opacity="0" stroke-miterlimit="10" stroke="rgb(186,25,175)" stroke-opacity="1" stroke-width="13" d=" M44.53200149536133,36.15599822998047 C33.71900177001953,10.572999954223633 6.010000228881836,-39.28200149536133 -34.53799819946289,-36.00199890136719 C-54.58700180053711,-34.380001068115234 -42.15700149536133,-3.059999942779541 -17.71299934387207,14.380999565124512 C7.281000137329102,32.2140007019043 44.53200149536133,36.15599822998047 44.53200149536133,36.15599822998047z"></path></g></g><g style="display: block;" transform="matrix(1,0,0,1,0,-20)" opacity="1"><g opacity="1" transform="matrix(1,0,0,1,332.8659973144531,111.88400268554688)"><path fill="url(#__lottie_element_19)" fill-opacity="1" d=" M-61.604000091552734,20.61400032043457 C-50.79100036621094,-4.968999862670898 -23.082000732421875,-54.82400131225586 17.465999603271484,-51.54399871826172 C58.013999938964844,-48.263999938964844 72.88200378417969,10.116999626159668 58.013999938964844,29.797000885009766 C43.145999908447266,49.47700119018555 11.383000373840332,52.75699996948242 -6.188000202178955,51.44499969482422 C-23.759000778198242,50.132999420166016 -50.1150016784668,49.47700119018555 -58.900001525878906,49.47700119018555 C-67.68499755859375,49.47700119018555 -61.604000091552734,20.61400032043457 -61.604000091552734,20.61400032043457z"></path><path stroke-linecap="butt" stroke-linejoin="miter" fill-opacity="0" stroke-miterlimit="10" stroke="rgb(186,25,175)" stroke-opacity="1" stroke-width="13" d=" M-61.604000091552734,20.61400032043457 C-50.79100036621094,-4.968999862670898 -23.082000732421875,-54.82400131225586 17.465999603271484,-51.54399871826172 C58.013999938964844,-48.263999938964844 72.88200378417969,10.116999626159668 58.013999938964844,29.797000885009766 C43.145999908447266,49.47700119018555 11.383000373840332,52.75699996948242 -6.188000202178955,51.44499969482422 C-23.759000778198242,50.132999420166016 -50.1150016784668,49.47700119018555 -58.900001525878906,49.47700119018555 C-67.68499755859375,49.47700119018555 -61.604000091552734,20.61400032043457 -61.604000091552734,20.61400032043457z"></path></g><g opacity="1" transform="matrix(1,0,0,1,315.79400634765625,96.34200286865234)"><path fill="rgb(229,46,146)" fill-opacity="1" d=" M-44.53200149536133,36.15599822998047 C-33.71900177001953,10.572999954223633 -6.010000228881836,-39.28200149536133 34.53799819946289,-36.00199890136719 C54.58700180053711,-34.380001068115234 42.15700149536133,-3.059999942779541 17.71299934387207,14.380999565124512 C-7.281000137329102,32.2140007019043 -44.53200149536133,36.15599822998047 -44.53200149536133,36.15599822998047z"></path><path stroke-linecap="butt" stroke-linejoin="miter" fill-opacity="0" stroke-miterlimit="10" stroke="rgb(186,25,175)" stroke-opacity="1" stroke-width="13" d=" M-44.53200149536133,36.15599822998047 C-33.71900177001953,10.572999954223633 -6.010000228881836,-39.28200149536133 34.53799819946289,-36.00199890136719 C54.58700180053711,-34.380001068115234 42.15700149536133,-3.059999942779541 17.71299934387207,14.380999565124512 C-7.281000137329102,32.2140007019043 -44.53200149536133,36.15599822998047 -44.53200149536133,36.15599822998047z"></path></g></g><g style="display: block;" transform="matrix(1,0,0,1,0,-20)" opacity="1"><g opacity="1" transform="matrix(1,0,0,1,258.510009765625,140.69000244140625)"><path fill="url(#__lottie_element_15)" fill-opacity="1" d=" M31.840999603271484,0 C31.840999603271484,12.984999656677246 17.584999084472656,23.51099967956543 0,23.51099967956543 C-17.584999084472656,23.51099967956543 -31.840999603271484,12.984999656677246 -31.840999603271484,0 C-31.840999603271484,-12.984999656677246 -17.584999084472656,-23.51099967956543 0,-23.51099967956543 C17.584999084472656,-23.51099967956543 31.840999603271484,-12.984999656677246 31.840999603271484,0z"></path><path stroke-linecap="butt" stroke-linejoin="miter" fill-opacity="0" stroke-miterlimit="10" stroke="rgb(186,25,175)" stroke-opacity="1" stroke-width="13" d=" M31.840999603271484,0 C31.840999603271484,12.984999656677246 17.584999084472656,23.51099967956543 0,23.51099967956543 C-17.584999084472656,23.51099967956543 -31.840999603271484,12.984999656677246 -31.840999603271484,0 C-31.840999603271484,-12.984999656677246 -17.584999084472656,-23.51099967956543 0,-23.51099967956543 C17.584999084472656,-23.51099967956543 31.840999603271484,-12.984999656677246 31.840999603271484,0z"></path></g></g></g></svg>